# xmcd
#
# Track frame offsets:
#	150
#	9515
#	18342
#	30847
#	40890
#	53047
#	64295
#	74370
#	85487
#	95987
#	107717
#	117347
#	129627
#	140530
#	149970
#	158895
#	169790
#	179822
#	188597
#	197262
#	209320
#	218892
#	229032
#	238670
#	250582
#	261342
#	271847
#	281987
#	292685
#	302930
#
# Disc length: 4157 seconds
#
# Revision: 0
# Processed by: cddbd v1.5.2PL0 Copyright (c) Steve Scherf et al.
# Submitted via: audiograbber 1.83.01
#
DISCID=c6103b1e
DTITLE=Various Artist - That'll Flat Git It! Vol.3
DYEAR=1992
DGENRE=Rockabilly
TTITLE0=Skeets McDonald - You Oughta See Grandma Rock
TTITLE1=Rose Maddox - My Little Baby
TTITLE2=Jimmy Heap - Sebbin' Come Elebbin'
TTITLE3=Bob Luman - Try Me
TTITLE4=Louvin Bros - Cash On The Barrelhead
TTITLE5=Tommy Sands - The Worryin' Kind
TTITLE6=Dub Dickerson - My Gal Gertie
TTITLE7=Jerry Reed - When I Found You
TTITLE8=Charlie Bop Trio - Mr. Big Feet
TTITLE9=Farmer Boys - Cool Down Mame
TTITLE10=Johnny Fallin - Party Kiss
TTITLE11=Rudy Grayzell - There's Gonna Be A Ball
TTITLE12=Simon Crum - Bop Cat Bop
TTITLE13=Jean Shepard - Jeopardy
TTITLE14=Faron Young - Alone With You
TTITLE15=Skeets McDonald - Heart-Breakin' Mama
TTITLE16=Tommy Collins - Black Cat
TTITLE17=Jimmy Heap - Go Ahead On
TTITLE18=Kenny Loran - I Chickened Out
TTITLE19=Louvin Bros - Red Hen Hop
TTITLE20=Tommy Sands - Playin' The Field
TTITLE21=Jerry Reed - I've Had Enough
TTITLE22=Jean Shepard - He's My Baby
TTITLE23=Farmer Boys - My Baby Done Left Me
TTITLE24=Johnny Fallin - Party Line
TTITLE25=Ferlin Husky - Slow Down Brother
TTITLE26=Bobby Norris - I Went Rockin'
TTITLE27=Faron Young - I Can't Dance
TTITLE28=Rio Rockers - Mexicali Baby
TTITLE29=Bobby Lee Trammell - You Mostest Girl
EXTD=
EXTT0=
EXTT1=
EXTT2=
EXTT3=
EXTT4=
EXTT5=
EXTT6=
EXTT7=
EXTT8=
EXTT9=
EXTT10=
EXTT11=
EXTT12=
EXTT13=
EXTT14=
EXTT15=
EXTT16=
EXTT17=
EXTT18=
EXTT19=
EXTT20=
EXTT21=
EXTT22=
EXTT23=
EXTT24=
EXTT25=
EXTT26=
EXTT27=
EXTT28=
EXTT29=
PLAYORDER=
